<?xml version="1.0" encoding="UTF-8" standalone="no"?>
<!DOCTYPE svg PUBLIC "-//W3C//DTD SVG 1.1//EN" "http://www.w3.org/Graphics/SVG/1.1/DTD/svg11.dtd">
<!-- Created with Vectornator (http://vectornator.io/) -->
<svg height="100%" stroke-miterlimit="10" style="fill-rule:nonzero;clip-rule:evenodd;stroke-linecap:round;stroke-linejoin:round;" version="1.1" viewBox="0 0 252.168 65.0935" width="100%" xml:space="preserve" xmlns="http://www.w3.org/2000/svg" xmlns:vectornator="http://vectornator.io" xmlns:xlink="http://www.w3.org/1999/xlink">
<defs/>
<g id="MainLayer" vectornator:layerName="MainLayer">
<g opacity="1" vectornator:layerName="Groupe4">
<path d="M7.76171 33.9717L26.2547 33.9717C28.9757 33.9717 31.1815 36.0184 31.1815 38.5431L31.1815 57.7468C31.1815 60.2715 28.9757 62.3182 26.2547 62.3182L7.76171 62.3182C5.04076 62.3182 2.835 60.2715 2.835 57.7468L2.835 38.5431C2.835 36.0184 5.04076 33.9717 7.76171 33.9717Z" fill="#faa870" fill-rule="nonzero" opacity="1" stroke="#000000" stroke-linecap="butt" stroke-linejoin="miter" stroke-width="0.807194" vectornator:layerName="rect 12"/>
<path d="M38.9467 33.9717L57.4397 33.9717C60.1607 33.9717 62.3665 36.0184 62.3665 38.5431L62.3665 57.7468C62.3665 60.2715 60.1607 62.3182 57.4397 62.3182L38.9467 62.3182C36.2258 62.3182 34.02 60.2715 34.02 57.7468L34.02 38.5431C34.02 36.0184 36.2258 33.9717 38.9467 33.9717Z" fill="#faa870" fill-rule="nonzero" opacity="1" stroke="#000000" stroke-linecap="butt" stroke-linejoin="miter" stroke-width="0.807194" vectornator:layerName="rect 13"/>
<path d="M70.1317 33.9717L88.6247 33.9717C91.3457 33.9717 93.5515 36.0184 93.5515 38.5431L93.5515 57.7468C93.5515 60.2715 91.3457 62.3182 88.6247 62.3182L70.1317 62.3182C67.4108 62.3182 65.205 60.2715 65.205 57.7468L65.205 38.5431C65.205 36.0184 67.4108 33.9717 70.1317 33.9717Z" fill="#faa870" fill-rule="nonzero" opacity="1" stroke="#000000" stroke-linecap="butt" stroke-linejoin="miter" stroke-width="0.807194" vectornator:layerName="rect 14"/>
<path d="M101.317 33.9717L119.81 33.9717C122.531 33.9717 124.736 36.0184 124.736 38.5431L124.736 57.7468C124.736 60.2715 122.531 62.3182 119.81 62.3182L101.317 62.3182C98.5958 62.3182 96.39 60.2715 96.39 57.7468L96.39 38.5431C96.39 36.0184 98.5958 33.9717 101.317 33.9717Z" fill="#faa870" fill-rule="nonzero" opacity="1" stroke="#000000" stroke-linecap="butt" stroke-linejoin="miter" stroke-width="0.807194" vectornator:layerName="rect 15"/>
</g>
<g opacity="1" vectornator:layerName="Groupe3">
<path d="M132.502 34.02L150.995 34.02C153.716 34.02 155.921 36.0667 155.921 38.5913L155.921 57.7951C155.921 60.3198 153.716 62.3665 150.995 62.3665L132.502 62.3665C129.781 62.3665 127.575 60.3198 127.575 57.7951L127.575 38.5913C127.575 36.0667 129.781 34.02 132.502 34.02Z" fill="#70f1fa" fill-rule="nonzero" opacity="1" stroke="#000000" stroke-linecap="butt" stroke-linejoin="miter" stroke-width="0.807194" vectornator:layerName="rect 8"/>
<path d="M163.687 34.02L182.18 34.02C184.901 34.02 187.106 36.0667 187.106 38.5913L187.106 57.7951C187.106 60.3198 184.901 62.3665 182.18 62.3665L163.687 62.3665C160.966 62.3665 158.76 60.3198 158.76 57.7951L158.76 38.5913C158.76 36.0667 160.966 34.02 163.687 34.02Z" fill="#70f1fa" fill-rule="nonzero" opacity="1" stroke="#000000" stroke-linecap="butt" stroke-linejoin="miter" stroke-width="0.807194" vectornator:layerName="rect 9"/>
<path d="M194.872 34.02L213.365 34.02C216.086 34.02 218.291 36.0667 218.291 38.5913L218.291 57.7951C218.291 60.3198 216.086 62.3665 213.365 62.3665L194.872 62.3665C192.151 62.3665 189.945 60.3198 189.945 57.7951L189.945 38.5913C189.945 36.0667 192.151 34.02 194.872 34.02Z" fill="#70f1fa" fill-rule="nonzero" opacity="1" stroke="#000000" stroke-linecap="butt" stroke-linejoin="miter" stroke-width="0.807194" vectornator:layerName="rect 10"/>
<path d="M226.057 34.02L244.55 34.02C247.271 34.02 249.476 36.0667 249.476 38.5913L249.476 57.7951C249.476 60.3198 247.271 62.3665 244.55 62.3665L226.057 62.3665C223.336 62.3665 221.13 60.3198 221.13 57.7951L221.13 38.5913C221.13 36.0667 223.336 34.02 226.057 34.02Z" fill="#70f1fa" fill-rule="nonzero" opacity="1" stroke="#000000" stroke-linecap="butt" stroke-linejoin="miter" stroke-width="0.807194" vectornator:layerName="rect 11"/>
</g>
<g opacity="1" vectornator:layerName="Groupe2">
<path d="M132.502 3.16157L150.995 3.16157C153.716 3.16157 155.921 5.20823 155.921 7.73291L155.921 26.9367C155.921 29.4614 153.716 31.508 150.995 31.508L132.502 31.508C129.781 31.508 127.575 29.4614 127.575 26.9367L127.575 7.73291C127.575 5.20823 129.781 3.16157 132.502 3.16157Z" fill="#dbfa70" fill-rule="nonzero" opacity="1" stroke="#000000" stroke-linecap="butt" stroke-linejoin="miter" stroke-width="0.807194" vectornator:layerName="rect 4"/>
<path d="M163.687 3.16157L182.18 3.16157C184.901 3.16157 187.106 5.20823 187.106 7.73291L187.106 26.9367C187.106 29.4614 184.901 31.508 182.18 31.508L163.687 31.508C160.966 31.508 158.76 29.4614 158.76 26.9367L158.76 7.73291C158.76 5.20823 160.966 3.16157 163.687 3.16157Z" fill="#dbfa70" fill-rule="nonzero" opacity="1" stroke="#000000" stroke-linecap="butt" stroke-linejoin="miter" stroke-width="0.807194" vectornator:layerName="rect 5"/>
<path d="M194.872 3.16157L213.365 3.16157C216.086 3.16157 218.291 5.20823 218.291 7.73291L218.291 26.9367C218.291 29.4614 216.086 31.508 213.365 31.508L194.872 31.508C192.151 31.508 189.945 29.4614 189.945 26.9367L189.945 7.73291C189.945 5.20823 192.151 3.16157 194.872 3.16157Z" fill="#dbfa70" fill-rule="nonzero" opacity="1" stroke="#000000" stroke-linecap="butt" stroke-linejoin="miter" stroke-width="0.807194" vectornator:layerName="rect 6"/>
<path d="M226.057 3.16157L244.55 3.16157C247.271 3.16157 249.476 5.20823 249.476 7.73291L249.476 26.9367C249.476 29.4614 247.271 31.508 244.55 31.508L226.057 31.508C223.336 31.508 221.13 29.4614 221.13 26.9367L221.13 7.73291C221.13 5.20823 223.336 3.16157 226.057 3.16157Z" fill="#dbfa70" fill-rule="nonzero" opacity="1" stroke="#000000" stroke-linecap="butt" stroke-linejoin="miter" stroke-width="0.807194" vectornator:layerName="rect 7"/>
</g>
<g opacity="1" vectornator:layerName="Groupe1">
<path d="M7.76171 3.48813L26.2547 3.48813C28.9757 3.48813 31.1815 5.5348 31.1815 8.05948L31.1815 27.2632C31.1815 29.7879 28.9757 31.8346 26.2547 31.8346L7.76171 31.8346C5.04076 31.8346 2.835 29.7879 2.835 27.2632L2.835 8.05948C2.835 5.5348 5.04076 3.48813 7.76171 3.48813Z" fill="#cc71fa" fill-rule="nonzero" opacity="1" stroke="#000000" stroke-linecap="butt" stroke-linejoin="miter" stroke-width="0.807194" vectornator:layerName="rect"/>
<path d="M38.9467 3.48813L57.4397 3.48813C60.1607 3.48813 62.3665 5.5348 62.3665 8.05948L62.3665 27.2632C62.3665 29.7879 60.1607 31.8346 57.4397 31.8346L38.9467 31.8346C36.2258 31.8346 34.02 29.7879 34.02 27.2632L34.02 8.05948C34.02 5.5348 36.2258 3.48813 38.9467 3.48813Z" fill="#cc71fa" fill-rule="nonzero" opacity="1" stroke="#000000" stroke-linecap="butt" stroke-linejoin="miter" stroke-width="0.807194" vectornator:layerName="rect 1"/>
<path d="M70.1317 3.48813L88.6247 3.48813C91.3457 3.48813 93.5515 5.5348 93.5515 8.05948L93.5515 27.2632C93.5515 29.7879 91.3457 31.8346 88.6247 31.8346L70.1317 31.8346C67.4108 31.8346 65.205 29.7879 65.205 27.2632L65.205 8.05948C65.205 5.5348 67.4108 3.48813 70.1317 3.48813Z" fill="#cc71fa" fill-rule="nonzero" opacity="1" stroke="#000000" stroke-linecap="butt" stroke-linejoin="miter" stroke-width="0.807194" vectornator:layerName="rect 2"/>
<path d="M101.317 3.48813L119.81 3.48813C122.531 3.48813 124.736 5.5348 124.736 8.05948L124.736 27.2632C124.736 29.7879 122.531 31.8346 119.81 31.8346L101.317 31.8346C98.5958 31.8346 96.39 29.7879 96.39 27.2632L96.39 8.05948C96.39 5.5348 98.5958 3.48813 101.317 3.48813Z" fill="#cc71fa" fill-rule="nonzero" opacity="1" stroke="#000000" stroke-linecap="butt" stroke-linejoin="miter" stroke-width="0.807194" vectornator:layerName="rect 3"/>
</g>
<path d="M19.0531 13.8506L19.0531 6.87797L22.475 6.87797L22.475 25.1123L19.0531 25.1123L19.0531 23.167C18.686 23.9248 18.2114 24.4952 17.6293 24.878C17.0473 25.2608 16.3617 25.4522 15.5727 25.4522C14.0727 25.4522 12.9086 24.8506 12.0805 23.6475C11.2524 22.4444 10.8383 20.7491 10.8383 18.5616C10.8383 16.3428 11.2582 14.6397 12.0981 13.4522C12.9379 12.2647 14.1352 11.6709 15.6899 11.6709C16.393 11.6709 17.0239 11.8526 17.5824 12.2159C18.141 12.5791 18.6313 13.1241 19.0531 13.8506ZM14.2719 18.585C14.2719 19.8506 14.4828 20.8428 14.9047 21.5616C15.3266 22.2803 15.9086 22.6397 16.6508 22.6397C17.393 22.6397 17.9789 22.2803 18.4086 21.5616C18.8383 20.8428 19.0531 19.8506 19.0531 18.585C19.0531 17.3194 18.8383 16.3272 18.4086 15.6084C17.9789 14.8897 17.393 14.5303 16.6508 14.5303C15.9086 14.5303 15.3266 14.8897 14.9047 15.6084C14.4828 16.3272 14.2719 17.3194 14.2719 18.585Z" fill="#000000" opacity="1" stroke="none" vectornator:layerName="Texte 1"/>
<path d="M144.485 18.2584C144.485 16.9928 144.274 16.0006 143.852 15.2819C143.43 14.5631 142.848 14.2037 142.106 14.2037C141.363 14.2037 140.778 14.5631 140.348 15.2819C139.918 16.0006 139.703 16.9928 139.703 18.2584C139.703 19.5241 139.918 20.5162 140.348 21.235C140.778 21.9537 141.363 22.3131 142.106 22.3131C142.848 22.3131 143.43 21.9537 143.852 21.235C144.274 20.5162 144.485 19.5241 144.485 18.2584ZM139.703 13.5241C140.125 12.7975 140.615 12.2526 141.174 11.8893C141.733 11.526 142.363 11.3444 143.067 11.3444C144.621 11.3444 145.819 11.9381 146.658 13.1256C147.498 14.3131 147.918 16.0162 147.918 18.235C147.918 20.4225 147.504 22.1178 146.676 23.3209C145.848 24.5241 144.684 25.1256 143.184 25.1256C142.395 25.1256 141.707 24.9342 141.121 24.5514C140.535 24.1686 140.063 23.5983 139.703 22.8405L139.703 24.7858L136.281 24.7858L136.281 6.5514L139.703 6.5514L139.703 13.5241Z" fill="#000000" opacity="1" stroke="none" vectornator:layerName="Texte 5"/>
<path d="M205.097 18.4485C203.815 18.4485 202.921 18.6125 202.413 18.9407C201.905 19.2688 201.651 19.8313 201.651 20.6282C201.651 21.2219 201.827 21.6946 202.179 22.0461C202.53 22.3977 203.007 22.5735 203.608 22.5735C204.515 22.5735 205.218 22.2317 205.718 21.5481C206.218 20.8645 206.468 19.9094 206.468 18.6829L206.468 18.4485L205.097 18.4485ZM209.878 17.1243L209.878 24.6125L206.468 24.6125L206.468 23.1477C206.054 23.7258 205.523 24.1711 204.874 24.4836C204.226 24.7961 203.511 24.9524 202.73 24.9524C201.237 24.9524 200.075 24.5579 199.243 23.7688C198.411 22.9797 197.995 21.8782 197.995 20.4641C197.995 18.9329 198.491 17.802 199.483 17.0715C200.476 16.3411 202.011 15.9758 204.089 15.9758L206.468 15.9758L206.468 15.4016C206.468 14.8469 206.267 14.427 205.864 14.1418C205.462 13.8567 204.87 13.7141 204.089 13.7141C203.269 13.7141 202.474 13.8176 201.704 14.0247C200.935 14.2317 200.132 14.5618 199.296 15.0149L199.296 12.0852C200.054 11.7727 200.823 11.5422 201.605 11.3938C202.386 11.2454 203.214 11.1711 204.089 11.1711C206.222 11.1711 207.72 11.6047 208.583 12.4719C209.446 13.3391 209.878 14.8899 209.878 17.1243Z" fill="#000000" opacity="1" stroke="none" vectornator:layerName="Texte 6"/>
<path d="M236.165 7.76099L236.165 11.4875L240.653 11.4875L240.653 14.1243L236.165 14.1243L236.165 20.3352C236.165 20.9211 236.307 21.3411 236.592 21.595C236.877 21.8489 237.352 21.9758 238.016 21.9758L240.653 21.9758L240.653 24.6125L237.77 24.6125C235.801 24.6125 234.469 24.2981 233.774 23.6692C233.079 23.0403 232.731 21.8743 232.731 20.1711L232.731 14.1243L229.379 14.1243L229.379 11.4875L232.731 11.4875L232.731 7.76099L236.165 7.76099Z" fill="#000000" opacity="1" stroke="none" vectornator:layerName="Texte 8"/>
<path d="M178.623 23.7948C177.826 24.1229 177.013 24.369 176.185 24.5331C175.357 24.6971 174.482 24.7792 173.56 24.7792C171.365 24.7792 169.687 24.1913 168.527 23.0155C167.367 21.8397 166.787 20.1464 166.787 17.9354C166.787 15.7948 167.345 14.1034 168.463 12.8612C169.58 11.619 171.103 10.9979 173.033 10.9979C174.978 10.9979 176.488 11.5741 177.562 12.7264C178.636 13.8788 179.173 15.5018 179.173 17.5956L179.173 18.9901L170.279 18.9901C170.287 20.0214 170.591 20.7909 171.193 21.2987C171.795 21.8065 172.693 22.0604 173.888 22.0604C174.677 22.0604 175.455 21.9471 176.22 21.7206C176.986 21.494 177.787 21.1346 178.623 20.6424L178.623 23.7948ZM175.716 16.412C175.701 15.5057 175.468 14.8202 175.019 14.3553C174.57 13.8905 173.908 13.6581 173.033 13.6581C172.244 13.6581 171.615 13.8983 171.146 14.3788C170.677 14.8592 170.4 15.5409 170.314 16.4237L175.716 16.412Z" fill="#000000" opacity="1" stroke="none" vectornator:layerName="Texte 9"/>
<path d="M23.2719 45.4389C22.8969 45.0951 22.4574 44.8373 21.9535 44.6655C21.4496 44.4936 20.8969 44.4076 20.2953 44.4076C19.5688 44.4076 18.934 44.5346 18.391 44.7885C17.8481 45.0424 17.4281 45.4115 17.1313 45.8959C16.9438 46.1928 16.8129 46.5522 16.7387 46.974C16.6645 47.3959 16.6274 48.0365 16.6274 48.8959L16.6274 54.9428L13.1938 54.9428L13.1938 41.8178L16.6274 41.8178L16.6274 43.8569C16.9633 43.1069 17.4789 42.5268 18.1742 42.1166C18.8696 41.7065 19.6821 41.5014 20.6117 41.5014C21.0805 41.5014 21.5395 41.558 21.9887 41.6713C22.4379 41.7846 22.8656 41.9506 23.2719 42.1694L23.2719 45.4389Z" fill="#000000" opacity="1" stroke="none" vectornator:layerName="Texte 12"/>
<path d="M77.3333 52.918L77.3333 59.7618L73.9114 59.7618L73.9114 41.6446L77.3333 41.6446L77.3333 43.6133C77.6927 42.8555 78.1653 42.2852 78.7513 41.9024C79.3372 41.5196 80.0247 41.3282 80.8138 41.3282C82.3138 41.3282 83.4778 41.9297 84.306 43.1329C85.1341 44.336 85.5481 46.0313 85.5481 48.2188C85.5481 50.4375 85.1282 52.1407 84.2884 53.3282C83.4485 54.5157 82.2513 55.1094 80.6966 55.1094C79.9935 55.1094 79.3626 54.9278 78.804 54.5645C78.2454 54.2012 77.7552 53.6524 77.3333 52.918ZM82.1146 48.1954C82.1146 46.9297 81.9036 45.9375 81.4817 45.2188C81.0599 44.5 80.4778 44.1407 79.7356 44.1407C78.9935 44.1407 78.4075 44.5 77.9778 45.2188C77.5481 45.9375 77.3333 46.9297 77.3333 48.1954C77.3333 49.461 77.5481 50.4532 77.9778 51.1719C78.4075 51.8907 78.9935 52.25 79.7356 52.25C80.4778 52.25 81.0599 51.8907 81.4817 51.1719C81.9036 50.4532 82.1146 49.461 82.1146 48.1954Z" fill="#000000" opacity="1" stroke="none" vectornator:layerName="Texte 13"/>
<path d="M110.557 44.1172C109.737 44.1172 109.093 44.4786 108.624 45.2012C108.155 45.9239 107.921 46.9297 107.921 48.2188C107.921 49.5079 108.155 50.5137 108.624 51.2364C109.093 51.959 109.737 52.3204 110.557 52.3204C111.385 52.3204 112.034 51.959 112.503 51.2364C112.971 50.5137 113.206 49.5079 113.206 48.2188C113.206 46.9297 112.971 45.9239 112.503 45.2012C112.034 44.4786 111.385 44.1172 110.557 44.1172ZM104.487 48.2188C104.487 46.1016 105.036 44.4239 106.134 43.1856C107.231 41.9473 108.706 41.3282 110.557 41.3282C112.417 41.3282 113.895 41.9473 114.993 43.1856C116.091 44.4239 116.639 46.1016 116.639 48.2188C116.639 50.336 116.091 52.0137 114.993 53.252C113.895 54.4903 112.417 55.1094 110.557 55.1094C108.706 55.1094 107.231 54.4903 106.134 53.252C105.036 52.0137 104.487 50.336 104.487 48.2188Z" fill="#000000" opacity="1" stroke="none" vectornator:layerName="Texte 14"/>
<path d="M53.8827 53.9518C53.0858 54.2799 52.2733 54.526 51.4452 54.6901C50.6171 54.8542 49.7421 54.9362 48.8202 54.9362C46.6249 54.9362 44.9471 54.3483 43.787 53.1725C42.6268 51.9967 42.0467 50.3034 42.0467 48.0924C42.0467 45.9518 42.6053 44.2604 43.7225 43.0182C44.8397 41.776 46.3631 41.1549 48.2928 41.1549C50.2381 41.1549 51.7479 41.7311 52.8221 42.8835C53.8964 44.0358 54.4335 45.6588 54.4335 47.7526L54.4335 49.1471L45.5389 49.1471C45.5467 50.1784 45.8514 50.9479 46.453 51.4557C47.0546 51.9635 47.953 52.2174 49.1483 52.2174C49.9374 52.2174 50.7147 52.1042 51.4803 51.8776C52.246 51.651 53.0467 51.2917 53.8827 50.7995L53.8827 53.9518ZM50.9764 46.569C50.9608 45.6627 50.7284 44.9772 50.2792 44.5124C49.8299 44.0475 49.1678 43.8151 48.2928 43.8151C47.5038 43.8151 46.8749 44.0553 46.4061 44.5358C45.9374 45.0163 45.66 45.6979 45.5741 46.5807L50.9764 46.569Z" fill="#000000" opacity="1" stroke="none" vectornator:layerName="Texte 15"/>
<path d="M74.0286 20.5303L74.0286 11.9873L77.4622 11.9873L77.4622 20.003C77.4622 20.9483 77.595 21.6241 77.8606 22.0303C78.1263 22.4366 78.5677 22.6397 79.1849 22.6397C79.8021 22.6397 80.2845 22.3663 80.6321 21.8194C80.9798 21.2725 81.1536 20.5069 81.1536 19.5225L81.1536 11.9873L84.5872 11.9873L84.5872 25.1123L81.1536 25.1123L81.1536 23.167C80.9114 23.8936 80.4993 24.4561 79.9173 24.8545C79.3353 25.253 78.6341 25.4522 77.8138 25.4522C76.5638 25.4522 75.6204 25.0381 74.9837 24.21C74.347 23.3819 74.0286 22.1553 74.0286 20.5303Z" fill="#000000" opacity="1" stroke="none" vectornator:layerName="Texte 10"/>
<path d="M111.425 13.2998C111.682 12.7452 112.01 12.335 112.409 12.0694C112.807 11.8037 113.296 11.6709 113.874 11.6709C115.007 11.6709 115.79 12.0616 116.223 12.8428C116.657 13.6241 116.874 15.2491 116.874 17.7178L116.874 25.1123L114.061 25.1123L114.061 16.6866C114.061 15.71 113.987 15.0577 113.839 14.7295C113.69 14.4014 113.421 14.2373 113.03 14.2373C112.639 14.2373 112.366 14.4053 112.21 14.7413C112.053 15.0772 111.975 15.7256 111.975 16.6866L111.975 25.1123L109.198 25.1123L109.198 16.6866C109.198 15.7256 109.12 15.0772 108.964 14.7413C108.807 14.4053 108.534 14.2373 108.143 14.2373C107.753 14.2373 107.483 14.4014 107.335 14.7295C107.186 15.0577 107.112 15.71 107.112 16.6866L107.112 25.1123L104.3 25.1123L104.3 11.9873L106.796 11.9873L106.796 13.3467C106.991 12.8311 107.303 12.4229 107.733 12.1221C108.163 11.8213 108.643 11.6709 109.175 11.6709C109.706 11.6709 110.19 11.8291 110.628 12.1455C111.065 12.462 111.331 12.8467 111.425 13.2998Z" fill="#000000" opacity="1" stroke="none" vectornator:layerName="Texte 11"/>
<path d="M54.4569 15.6084C54.0819 15.2647 53.6424 15.0069 53.1385 14.835C52.6346 14.6631 52.0819 14.5772 51.4803 14.5772C50.7538 14.5772 50.119 14.7041 49.576 14.958C49.0331 15.212 48.6131 15.5811 48.3163 16.0655C48.1288 16.3623 47.9979 16.7217 47.9237 17.1436C47.8495 17.5655 47.8124 18.2061 47.8124 19.0655L47.8124 25.1123L44.3788 25.1123L44.3788 11.9873L47.8124 11.9873L47.8124 14.0264C48.1483 13.2764 48.6639 12.6963 49.3592 12.2862C50.0546 11.876 50.8671 11.6709 51.7967 11.6709C52.2655 11.6709 52.7245 11.7276 53.1737 11.8409C53.6229 11.9541 54.0506 12.1202 54.4569 12.3389L54.4569 15.6084Z" fill="#000000" opacity="1" stroke="none" vectornator:layerName="Texte 2"/>
<g opacity="1" vectornator:layerName="Buttons">
<path d="M147.454 48.1631L136.08 55.2807L136.043 41.1058L147.454 48.1631Z" fill="#000000" fill-rule="nonzero" opacity="1" stroke="#000000" stroke-linecap="round" stroke-linejoin="round" stroke-width="3.01" vectornator:layerName="Polygone 1"/>
<path d="M227.365 48.1932C227.365 43.8091 230.919 40.255 235.303 40.255C239.687 40.255 243.241 43.8091 243.241 48.1932C243.241 52.5774 239.687 56.1315 235.303 56.1315C230.919 56.1315 227.365 52.5774 227.365 48.1932Z" fill="#000000" fill-rule="nonzero" opacity="1" stroke="none" vectornator:layerName="Ovale 1"/>
<path d="M198.131 40.255L210.106 40.255C211.183 40.255 212.056 41.1284 212.056 42.2057L212.056 54.1808C212.056 55.2581 211.183 56.1315 210.106 56.1315L198.131 56.1315C197.053 56.1315 196.18 55.2581 196.18 54.1808L196.18 42.2057C196.18 41.1284 197.053 40.255 198.131 40.255Z" fill="#000000" fill-rule="nonzero" opacity="1" stroke="none" vectornator:layerName="rect 16"/>
<g opacity="1" vectornator:layerName="Grouper 6">
<path d="M167.118 40.255L170.128 40.255C171.257 40.255 172.173 41.1284 172.173 42.2057L172.173 54.1808C172.173 55.2581 171.257 56.1315 170.128 56.1315L167.118 56.1315C165.988 56.1315 165.073 55.2581 165.073 54.1808L165.073 42.2057C165.073 41.1284 165.988 40.255 167.118 40.255Z" fill="#000000" fill-rule="nonzero" opacity="1" stroke="none" vectornator:layerName="rect"/>
<path d="M175.738 40.255L178.749 40.255C179.878 40.255 180.794 41.1284 180.794 42.2057L180.794 54.1808C180.794 55.2581 179.878 56.1315 178.749 56.1315L175.738 56.1315C174.609 56.1315 173.693 55.2581 173.693 54.1808L173.693 42.2057C173.693 41.1284 174.609 40.255 175.738 40.255Z" fill="#000000" fill-rule="nonzero" opacity="1" stroke="none" vectornator:layerName="rect"/>
</g>
</g>
</g>
</svg>
