<?xml version="1.0" encoding="UTF-8" standalone="no"?>
<!DOCTYPE svg PUBLIC "-//W3C//DTD SVG 1.1//EN" "http://www.w3.org/Graphics/SVG/1.1/DTD/svg11.dtd">
<!-- Created with Vectornator (http://vectornator.io/) -->
<svg height="100%" stroke-miterlimit="10" style="fill-rule:nonzero;clip-rule:evenodd;stroke-linecap:round;stroke-linejoin:round;" version="1.1" viewBox="0 0 127.575 127.575" width="100%" xml:space="preserve" xmlns="http://www.w3.org/2000/svg" xmlns:xlink="http://www.w3.org/1999/xlink">
<defs/>
<g id="MainLayer">
<g opacity="1">
<path d="M7.76171 97.0431L26.2547 97.0431C28.9757 97.0431 31.1815 99.0898 31.1815 101.614L31.1815 120.818C31.1815 123.343 28.9757 125.39 26.2547 125.39L7.76171 125.39C5.04076 125.39 2.835 123.343 2.835 120.818L2.835 101.614C2.835 99.0898 5.04076 97.0431 7.76171 97.0431Z" fill="#faa870" fill-rule="nonzero" opacity="1" stroke="#000000" stroke-linecap="butt" stroke-linejoin="miter" stroke-width="0.807194"/>
<path d="M38.9467 97.0431L57.4397 97.0431C60.1607 97.0431 62.3665 99.0898 62.3665 101.614L62.3665 120.818C62.3665 123.343 60.1607 125.39 57.4397 125.39L38.9467 125.39C36.2258 125.39 34.02 123.343 34.02 120.818L34.02 101.614C34.02 99.0898 36.2258 97.0431 38.9467 97.0431Z" fill="#faa870" fill-rule="nonzero" opacity="1" stroke="#000000" stroke-linecap="butt" stroke-linejoin="miter" stroke-width="0.807194"/>
<path d="M70.1317 97.0431L88.6247 97.0431C91.3457 97.0431 93.5515 99.0898 93.5515 101.614L93.5515 120.818C93.5515 123.343 91.3457 125.39 88.6247 125.39L70.1317 125.39C67.4108 125.39 65.205 123.343 65.205 120.818L65.205 101.614C65.205 99.0898 67.4108 97.0431 70.1317 97.0431Z" fill="#faa870" fill-rule="nonzero" opacity="1" stroke="#000000" stroke-linecap="butt" stroke-linejoin="miter" stroke-width="0.807194"/>
<path d="M101.317 97.0431L119.81 97.0431C122.531 97.0431 124.736 99.0898 124.736 101.614L124.736 120.818C124.736 123.343 122.531 125.39 119.81 125.39L101.317 125.39C98.5958 125.39 96.39 123.343 96.39 120.818L96.39 101.614C96.39 99.0898 98.5958 97.0431 101.317 97.0431Z" fill="#faa870" fill-rule="nonzero" opacity="1" stroke="#000000" stroke-linecap="butt" stroke-linejoin="miter" stroke-width="0.807194"/>
</g>
<g opacity="1">
<path d="M7.76171 65.8581L26.2547 65.8581C28.9757 65.8581 31.1815 67.9048 31.1815 70.4295L31.1815 89.6332C31.1815 92.1579 28.9757 94.2046 26.2547 94.2046L7.76171 94.2046C5.04076 94.2046 2.835 92.1579 2.835 89.6332L2.835 70.4295C2.835 67.9048 5.04076 65.8581 7.76171 65.8581Z" fill="#70f1fa" fill-rule="nonzero" opacity="1" stroke="#000000" stroke-linecap="butt" stroke-linejoin="miter" stroke-width="0.807194"/>
<path d="M38.9467 65.8581L57.4397 65.8581C60.1607 65.8581 62.3665 67.9048 62.3665 70.4295L62.3665 89.6332C62.3665 92.1579 60.1607 94.2046 57.4397 94.2046L38.9467 94.2046C36.2258 94.2046 34.02 92.1579 34.02 89.6332L34.02 70.4295C34.02 67.9048 36.2258 65.8581 38.9467 65.8581Z" fill="#70f1fa" fill-rule="nonzero" opacity="1" stroke="#000000" stroke-linecap="butt" stroke-linejoin="miter" stroke-width="0.807194"/>
<path d="M70.1317 65.8581L88.6247 65.8581C91.3457 65.8581 93.5515 67.9048 93.5515 70.4295L93.5515 89.6332C93.5515 92.1579 91.3457 94.2046 88.6247 94.2046L70.1317 94.2046C67.4108 94.2046 65.205 92.1579 65.205 89.6332L65.205 70.4295C65.205 67.9048 67.4108 65.8581 70.1317 65.8581Z" fill="#70f1fa" fill-rule="nonzero" opacity="1" stroke="#000000" stroke-linecap="butt" stroke-linejoin="miter" stroke-width="0.807194"/>
<path d="M101.317 65.8581L119.81 65.8581C122.531 65.8581 124.736 67.9048 124.736 70.4295L124.736 89.6332C124.736 92.1579 122.531 94.2046 119.81 94.2046L101.317 94.2046C98.5958 94.2046 96.39 92.1579 96.39 89.6332L96.39 70.4295C96.39 67.9048 98.5958 65.8581 101.317 65.8581Z" fill="#70f1fa" fill-rule="nonzero" opacity="1" stroke="#000000" stroke-linecap="butt" stroke-linejoin="miter" stroke-width="0.807194"/>
</g>
<g opacity="1">
<path d="M7.76171 34.6731L26.2547 34.6731C28.9757 34.6731 31.1815 36.7198 31.1815 39.2445L31.1815 58.4482C31.1815 60.9729 28.9757 63.0196 26.2547 63.0196L7.76171 63.0196C5.04076 63.0196 2.835 60.9729 2.835 58.4482L2.835 39.2445C2.835 36.7198 5.04076 34.6731 7.76171 34.6731Z" fill="#dbfa70" fill-rule="nonzero" opacity="1" stroke="#000000" stroke-linecap="butt" stroke-linejoin="miter" stroke-width="0.807194"/>
<path d="M38.9467 34.6731L57.4397 34.6731C60.1607 34.6731 62.3665 36.7198 62.3665 39.2445L62.3665 58.4482C62.3665 60.9729 60.1607 63.0196 57.4397 63.0196L38.9467 63.0196C36.2258 63.0196 34.02 60.9729 34.02 58.4482L34.02 39.2445C34.02 36.7198 36.2258 34.6731 38.9467 34.6731Z" fill="#dbfa70" fill-rule="nonzero" opacity="1" stroke="#000000" stroke-linecap="butt" stroke-linejoin="miter" stroke-width="0.807194"/>
<path d="M70.1317 34.6731L88.6247 34.6731C91.3457 34.6731 93.5515 36.7198 93.5515 39.2445L93.5515 58.4482C93.5515 60.9729 91.3457 63.0196 88.6247 63.0196L70.1317 63.0196C67.4108 63.0196 65.205 60.9729 65.205 58.4482L65.205 39.2445C65.205 36.7198 67.4108 34.6731 70.1317 34.6731Z" fill="#dbfa70" fill-rule="nonzero" opacity="1" stroke="#000000" stroke-linecap="butt" stroke-linejoin="miter" stroke-width="0.807194"/>
<path d="M101.317 34.6731L119.81 34.6731C122.531 34.6731 124.736 36.7198 124.736 39.2445L124.736 58.4482C124.736 60.9729 122.531 63.0196 119.81 63.0196L101.317 63.0196C98.5958 63.0196 96.39 60.9729 96.39 58.4482L96.39 39.2445C96.39 36.7198 98.5958 34.6731 101.317 34.6731Z" fill="#dbfa70" fill-rule="nonzero" opacity="1" stroke="#000000" stroke-linecap="butt" stroke-linejoin="miter" stroke-width="0.807194"/>
</g>
<g opacity="1">
<path d="M7.76171 3.48813L26.2547 3.48813C28.9757 3.48813 31.1815 5.5348 31.1815 8.05948L31.1815 27.2632C31.1815 29.7879 28.9757 31.8346 26.2547 31.8346L7.76171 31.8346C5.04076 31.8346 2.835 29.7879 2.835 27.2632L2.835 8.05948C2.835 5.5348 5.04076 3.48813 7.76171 3.48813Z" fill="#cc71fa" fill-rule="nonzero" opacity="1" stroke="#000000" stroke-linecap="butt" stroke-linejoin="miter" stroke-width="0.807194"/>
<path d="M38.9467 3.48813L57.4397 3.48813C60.1607 3.48813 62.3665 5.5348 62.3665 8.05948L62.3665 27.2632C62.3665 29.7879 60.1607 31.8346 57.4397 31.8346L38.9467 31.8346C36.2258 31.8346 34.02 29.7879 34.02 27.2632L34.02 8.05948C34.02 5.5348 36.2258 3.48813 38.9467 3.48813Z" fill="#cc71fa" fill-rule="nonzero" opacity="1" stroke="#000000" stroke-linecap="butt" stroke-linejoin="miter" stroke-width="0.807194"/>
<path d="M70.1317 3.48813L88.6247 3.48813C91.3457 3.48813 93.5515 5.5348 93.5515 8.05948L93.5515 27.2632C93.5515 29.7879 91.3457 31.8346 88.6247 31.8346L70.1317 31.8346C67.4108 31.8346 65.205 29.7879 65.205 27.2632L65.205 8.05948C65.205 5.5348 67.4108 3.48813 70.1317 3.48813Z" fill="#cc71fa" fill-rule="nonzero" opacity="1" stroke="#000000" stroke-linecap="butt" stroke-linejoin="miter" stroke-width="0.807194"/>
<path d="M101.317 3.48813L119.81 3.48813C122.531 3.48813 124.736 5.5348 124.736 8.05948L124.736 27.2632C124.736 29.7879 122.531 31.8346 119.81 31.8346L101.317 31.8346C98.5958 31.8346 96.39 29.7879 96.39 27.2632L96.39 8.05948C96.39 5.5348 98.5958 3.48813 101.317 3.48813Z" fill="#cc71fa" fill-rule="nonzero" opacity="1" stroke="#000000" stroke-linecap="butt" stroke-linejoin="miter" stroke-width="0.807194"/>
</g>
<g opacity="1">
<path d="M19.0531 13.8506L19.0531 6.87797L22.475 6.87797L22.475 25.1123L19.0531 25.1123L19.0531 23.167C18.686 23.9248 18.2114 24.4952 17.6293 24.878C17.0473 25.2608 16.3617 25.4522 15.5727 25.4522C14.0727 25.4522 12.9086 24.8506 12.0805 23.6475C11.2524 22.4444 10.8383 20.7491 10.8383 18.5616C10.8383 16.3428 11.2582 14.6397 12.0981 13.4522C12.9379 12.2647 14.1352 11.6709 15.6899 11.6709C16.393 11.6709 17.0239 11.8526 17.5824 12.2159C18.141 12.5791 18.6313 13.1241 19.0531 13.8506ZM14.2719 18.585C14.2719 19.8506 14.4828 20.8428 14.9047 21.5616C15.3266 22.2803 15.9086 22.6397 16.6508 22.6397C17.393 22.6397 17.9789 22.2803 18.4086 21.5616C18.8383 20.8428 19.0531 19.8506 19.0531 18.585C19.0531 17.3194 18.8383 16.3272 18.4086 15.6084C17.9789 14.8897 17.393 14.5303 16.6508 14.5303C15.9086 14.5303 15.3266 14.8897 14.9047 15.6084C14.4828 16.3272 14.2719 17.3194 14.2719 18.585Z" fill="#000000" opacity="1" stroke="none"/>
<path d="M19.7446 49.77C19.7446 48.5044 19.5336 47.5122 19.1117 46.7934C18.6899 46.0747 18.1078 45.7153 17.3656 45.7153C16.6235 45.7153 16.0375 46.0747 15.6078 46.7934C15.1781 47.5122 14.9633 48.5044 14.9633 49.77C14.9633 51.0356 15.1781 52.0278 15.6078 52.7466C16.0375 53.4653 16.6235 53.8247 17.3656 53.8247C18.1078 53.8247 18.6899 53.4653 19.1117 52.7466C19.5336 52.0278 19.7446 51.0356 19.7446 49.77ZM14.9633 45.0356C15.3852 44.3091 15.8754 43.7641 16.434 43.4009C16.9926 43.0376 17.6235 42.8559 18.3266 42.8559C19.8813 42.8559 21.0785 43.4497 21.9184 44.6372C22.7582 45.8247 23.1781 47.5278 23.1781 49.7466C23.1781 51.9341 22.7641 53.6294 21.936 54.8325C21.1078 56.0356 19.9438 56.6372 18.4438 56.6372C17.6547 56.6372 16.9672 56.4458 16.3813 56.063C15.7953 55.6802 15.3227 55.1098 14.9633 54.352L14.9633 56.2973L11.5414 56.2973L11.5414 38.063L14.9633 38.063L14.9633 45.0356Z" fill="#000000" opacity="1" stroke="none"/>
<path d="M80.3567 49.9601C79.0755 49.9601 78.181 50.1241 77.6731 50.4522C77.1653 50.7804 76.9114 51.3429 76.9114 52.1397C76.9114 52.7335 77.0872 53.2061 77.4388 53.5577C77.7903 53.9093 78.2669 54.0851 78.8685 54.0851C79.7747 54.0851 80.4778 53.7433 80.9778 53.0597C81.4778 52.3761 81.7278 51.421 81.7278 50.1944L81.7278 49.9601L80.3567 49.9601ZM85.138 48.6358L85.138 56.1241L81.7278 56.1241L81.7278 54.6593C81.3138 55.2374 80.7825 55.6827 80.1341 55.9952C79.4856 56.3077 78.7708 56.464 77.9896 56.464C76.4974 56.464 75.3353 56.0694 74.5032 55.2804C73.6712 54.4913 73.2552 53.3897 73.2552 51.9757C73.2552 50.4444 73.7513 49.3136 74.7435 48.5831C75.7356 47.8526 77.2708 47.4874 79.3489 47.4874L81.7278 47.4874L81.7278 46.9132C81.7278 46.3585 81.5267 45.9386 81.1243 45.6534C80.722 45.3683 80.1302 45.2257 79.3489 45.2257C78.5286 45.2257 77.7337 45.3292 76.9642 45.5362C76.1946 45.7433 75.3919 46.0733 74.556 46.5265L74.556 43.5968C75.3138 43.2843 76.0833 43.0538 76.8646 42.9054C77.6458 42.7569 78.4739 42.6827 79.3489 42.6827C81.4817 42.6827 82.9798 43.1163 83.8431 43.9835C84.7064 44.8507 85.138 46.4015 85.138 48.6358Z" fill="#000000" opacity="1" stroke="none"/>
<path d="M111.425 39.2726L111.425 42.9991L115.913 42.9991L115.913 45.6358L111.425 45.6358L111.425 51.8468C111.425 52.4327 111.567 52.8526 111.852 53.1065C112.137 53.3604 112.612 53.4874 113.276 53.4874L115.913 53.4874L115.913 56.1241L113.03 56.1241C111.061 56.1241 109.729 55.8097 109.034 55.1808C108.339 54.5519 107.991 53.3858 107.991 51.6827L107.991 45.6358L104.639 45.6358L104.639 42.9991L107.991 42.9991L107.991 39.2726L111.425 39.2726Z" fill="#000000" opacity="1" stroke="none"/>
<path d="M53.8827 55.3064C53.0858 55.6345 52.2733 55.8806 51.4452 56.0446C50.6171 56.2087 49.7421 56.2907 48.8202 56.2907C46.6249 56.2907 44.9471 55.7028 43.787 54.5271C42.6268 53.3513 42.0467 51.6579 42.0467 49.447C42.0467 47.3064 42.6053 45.615 43.7225 44.3728C44.8397 43.1306 46.3631 42.5095 48.2928 42.5095C50.2381 42.5095 51.7479 43.0857 52.8221 44.238C53.8964 45.3903 54.4335 47.0134 54.4335 49.1071L54.4335 50.5017L45.5389 50.5017C45.5467 51.5329 45.8514 52.3025 46.453 52.8103C47.0546 53.3181 47.953 53.572 49.1483 53.572C49.9374 53.572 50.7147 53.4587 51.4803 53.2321C52.246 53.0056 53.0467 52.6462 53.8827 52.154L53.8827 55.3064ZM50.9764 47.9235C50.9608 47.0173 50.7284 46.3317 50.2792 45.8669C49.8299 45.4021 49.1678 45.1696 48.2928 45.1696C47.5038 45.1696 46.8749 45.4099 46.4061 45.8903C45.9374 46.3708 45.66 47.0525 45.5741 47.9353L50.9764 47.9235Z" fill="#000000" opacity="1" stroke="none"/>
<path d="M23.2719 108.51C22.8969 108.167 22.4574 107.909 21.9535 107.737C21.4496 107.565 20.8969 107.479 20.2953 107.479C19.5688 107.479 18.934 107.606 18.391 107.86C17.8481 108.114 17.4281 108.483 17.1313 108.967C16.9438 109.264 16.8129 109.624 16.7387 110.045C16.6645 110.467 16.6274 111.108 16.6274 111.967L16.6274 118.014L13.1938 118.014L13.1938 104.889L16.6274 104.889L16.6274 106.928C16.9633 106.178 17.4789 105.598 18.1742 105.188C18.8696 104.778 19.6821 104.573 20.6117 104.573C21.0805 104.573 21.5395 104.629 21.9887 104.743C22.4379 104.856 22.8656 105.022 23.2719 105.241L23.2719 108.51Z" fill="#000000" opacity="1" stroke="none"/>
<path d="M77.3333 115.989L77.3333 122.833L73.9114 122.833L73.9114 104.716L77.3333 104.716L77.3333 106.685C77.6927 105.927 78.1653 105.357 78.7513 104.974C79.3372 104.591 80.0247 104.4 80.8138 104.4C82.3138 104.4 83.4778 105.001 84.306 106.204C85.1341 107.407 85.5481 109.103 85.5481 111.29C85.5481 113.509 85.1282 115.212 84.2884 116.4C83.4485 117.587 82.2513 118.181 80.6966 118.181C79.9935 118.181 79.3626 117.999 78.804 117.636C78.2454 117.273 77.7552 116.724 77.3333 115.989ZM82.1146 111.267C82.1146 110.001 81.9036 109.009 81.4817 108.29C81.0599 107.571 80.4778 107.212 79.7356 107.212C78.9935 107.212 78.4075 107.571 77.9778 108.29C77.5481 109.009 77.3333 110.001 77.3333 111.267C77.3333 112.532 77.5481 113.525 77.9778 114.243C78.4075 114.962 78.9935 115.321 79.7356 115.321C80.4778 115.321 81.0599 114.962 81.4817 114.243C81.9036 113.525 82.1146 112.532 82.1146 111.267Z" fill="#000000" opacity="1" stroke="none"/>
<path d="M110.557 107.189C109.737 107.189 109.093 107.55 108.624 108.273C108.155 108.995 107.921 110.001 107.921 111.29C107.921 112.579 108.155 113.585 108.624 114.308C109.093 115.03 109.737 115.392 110.557 115.392C111.385 115.392 112.034 115.03 112.503 114.308C112.971 113.585 113.206 112.579 113.206 111.29C113.206 110.001 112.971 108.995 112.503 108.273C112.034 107.55 111.385 107.189 110.557 107.189ZM104.487 111.29C104.487 109.173 105.036 107.495 106.134 106.257C107.231 105.019 108.706 104.4 110.557 104.4C112.417 104.4 113.895 105.019 114.993 106.257C116.091 107.495 116.639 109.173 116.639 111.29C116.639 113.407 116.091 115.085 114.993 116.323C113.895 117.562 112.417 118.181 110.557 118.181C108.706 118.181 107.231 117.562 106.134 116.323C105.036 115.085 104.487 113.407 104.487 111.29Z" fill="#000000" opacity="1" stroke="none"/>
<path d="M53.8827 117.023C53.0858 117.351 52.2733 117.597 51.4452 117.762C50.6171 117.926 49.7421 118.008 48.8202 118.008C46.6249 118.008 44.9471 117.42 43.787 116.244C42.6268 115.068 42.0467 113.375 42.0467 111.164C42.0467 109.023 42.6053 107.332 43.7225 106.09C44.8397 104.847 46.3631 104.226 48.2928 104.226C50.2381 104.226 51.7479 104.803 52.8221 105.955C53.8964 107.107 54.4335 108.73 54.4335 110.824L54.4335 112.219L45.5389 112.219C45.5467 113.25 45.8514 114.019 46.453 114.527C47.0546 115.035 47.953 115.289 49.1483 115.289C49.9374 115.289 50.7147 115.176 51.4803 114.949C52.246 114.722 53.0467 114.363 53.8827 113.871L53.8827 117.023ZM50.9764 109.64C50.9608 108.734 50.7284 108.049 50.2792 107.584C49.8299 107.119 49.1678 106.887 48.2928 106.887C47.5038 106.887 46.8749 107.127 46.4061 107.607C45.9374 108.088 45.66 108.769 45.5741 109.652L50.9764 109.64Z" fill="#000000" opacity="1" stroke="none"/>
<path d="M74.0286 20.5303L74.0286 11.9873L77.4622 11.9873L77.4622 20.003C77.4622 20.9483 77.595 21.6241 77.8606 22.0303C78.1263 22.4366 78.5677 22.6397 79.1849 22.6397C79.8021 22.6397 80.2845 22.3663 80.6321 21.8194C80.9798 21.2725 81.1536 20.5069 81.1536 19.5225L81.1536 11.9873L84.5872 11.9873L84.5872 25.1123L81.1536 25.1123L81.1536 23.167C80.9114 23.8936 80.4993 24.4561 79.9173 24.8545C79.3353 25.253 78.6341 25.4522 77.8138 25.4522C76.5638 25.4522 75.6204 25.0381 74.9837 24.21C74.347 23.3819 74.0286 22.1553 74.0286 20.5303Z" fill="#000000" opacity="1" stroke="none"/>
<path d="M111.425 13.2998C111.682 12.7452 112.01 12.335 112.409 12.0694C112.807 11.8037 113.296 11.6709 113.874 11.6709C115.007 11.6709 115.79 12.0616 116.223 12.8428C116.657 13.6241 116.874 15.2491 116.874 17.7178L116.874 25.1123L114.061 25.1123L114.061 16.6866C114.061 15.71 113.987 15.0577 113.839 14.7295C113.69 14.4014 113.421 14.2373 113.03 14.2373C112.639 14.2373 112.366 14.4053 112.21 14.7413C112.053 15.0772 111.975 15.7256 111.975 16.6866L111.975 25.1123L109.198 25.1123L109.198 16.6866C109.198 15.7256 109.12 15.0772 108.964 14.7413C108.807 14.4053 108.534 14.2373 108.143 14.2373C107.753 14.2373 107.483 14.4014 107.335 14.7295C107.186 15.0577 107.112 15.71 107.112 16.6866L107.112 25.1123L104.3 25.1123L104.3 11.9873L106.796 11.9873L106.796 13.3467C106.991 12.8311 107.303 12.4229 107.733 12.1221C108.163 11.8213 108.643 11.6709 109.175 11.6709C109.706 11.6709 110.19 11.8291 110.628 12.1455C111.065 12.462 111.331 12.8467 111.425 13.2998Z" fill="#000000" opacity="1" stroke="none"/>
<path d="M54.4569 15.6084C54.0819 15.2647 53.6424 15.0069 53.1385 14.835C52.6346 14.6631 52.0819 14.5772 51.4803 14.5772C50.7538 14.5772 50.119 14.7041 49.576 14.958C49.0331 15.212 48.6131 15.5811 48.3163 16.0655C48.1288 16.3623 47.9979 16.7217 47.9237 17.1436C47.8495 17.5655 47.8124 18.2061 47.8124 19.0655L47.8124 25.1123L44.3788 25.1123L44.3788 11.9873L47.8124 11.9873L47.8124 14.0264C48.1483 13.2764 48.6639 12.6963 49.3592 12.2862C50.0546 11.876 50.8671 11.6709 51.7967 11.6709C52.2655 11.6709 52.7245 11.7276 53.1737 11.8409C53.6229 11.9541 54.0506 12.1202 54.4569 12.3389L54.4569 15.6084Z" fill="#000000" opacity="1" stroke="none"/>
</g>
<g opacity="1">
<path d="M22.7136 80.0012L11.3404 87.1189L11.3028 72.9439L22.7136 80.0012Z" fill="#000000" fill-rule="nonzero" opacity="1" stroke="#000000" stroke-linecap="round" stroke-linejoin="round" stroke-width="3.01"/>
<path d="M102.625 80.0314C102.625 75.6472 106.179 72.0931 110.563 72.0931C114.947 72.0931 118.501 75.6472 118.501 80.0314C118.501 84.4155 114.947 87.9696 110.563 87.9696C106.179 87.9696 102.625 84.4155 102.625 80.0314Z" fill="#000000" fill-rule="nonzero" opacity="1" stroke="none"/>
<path d="M73.3907 72.0931L85.3658 72.0931C86.4431 72.0931 87.3165 72.9665 87.3165 74.0439L87.3165 86.0189C87.3165 87.0963 86.4431 87.9696 85.3658 87.9696L73.3907 87.9696C72.3133 87.9696 71.44 87.0963 71.44 86.0189L71.44 74.0439C71.44 72.9665 72.3133 72.0931 73.3907 72.0931Z" fill="#000000" fill-rule="nonzero" opacity="1" stroke="none"/>
<g opacity="1">
<path d="M42.3775 72.0931L45.388 72.0931C46.5174 72.0931 47.433 72.9665 47.433 74.0439L47.433 86.0189C47.433 87.0963 46.5174 87.9696 45.388 87.9696L42.3775 87.9696C41.2481 87.9696 40.3326 87.0963 40.3326 86.0189L40.3326 74.0439C40.3326 72.9665 41.2481 72.0931 42.3775 72.0931Z" fill="#000000" fill-rule="nonzero" opacity="1" stroke="none"/>
<path d="M50.9984 72.0931L54.0089 72.0931C55.1383 72.0931 56.0539 72.9665 56.0539 74.0439L56.0539 86.0189C56.0539 87.0963 55.1383 87.9696 54.0089 87.9696L50.9984 87.9696C49.869 87.9696 48.9535 87.0963 48.9535 86.0189L48.9535 74.0439C48.9535 72.9665 49.869 72.0931 50.9984 72.0931Z" fill="#000000" fill-rule="nonzero" opacity="1" stroke="none"/>
</g>
</g>
</g>
</svg>
